<svg width="34" height="32" viewBox="0 0 34 32" fill="none" xmlns="http://www.w3.org/2000/svg">
<path d="M17 0C7.6075 0 0 7.3411 0 16.4047C0 23.6638 4.86625 29.795 11.6237 31.9687C12.4737 32.1122 12.7925 31.6201 12.7925 31.1894C12.7925 30.7998 12.7713 29.508 12.7713 28.1341C8.5 28.8928 7.395 27.1293 7.055 26.2065C6.86375 25.7349 6.035 24.279 5.3125 23.8893C4.7175 23.5818 3.8675 22.823 5.29125 22.8025C6.63 22.782 7.58625 23.9919 7.905 24.484C9.435 26.9652 11.8788 26.268 12.8563 25.8374C13.005 24.7711 13.4512 24.0534 13.94 23.6433C10.1575 23.2332 6.205 21.8183 6.205 15.5435C6.205 13.7594 6.86375 12.283 7.9475 11.1347C7.7775 10.7246 7.1825 9.04309 8.1175 6.78745C8.1175 6.78745 9.54125 6.35682 12.7925 8.46893C14.1525 8.09982 15.5975 7.91527 17.0425 7.91527C18.4875 7.91527 19.9325 8.09982 21.2925 8.46893C24.5438 6.33632 25.9675 6.78745 25.9675 6.78745C26.9025 9.04309 26.3075 10.7246 26.1375 11.1347C27.2213 12.283 27.88 13.7389 27.88 15.5435C27.88 21.8388 23.9063 23.2332 20.1238 23.6433C20.74 24.1559 21.2713 25.1402 21.2713 26.6781C21.2713 28.8723 21.25 30.6358 21.25 31.1894C21.25 31.6201 21.5688 32.1327 22.4188 31.9687C25.7941 30.8701 28.7272 28.7773 30.8049 25.9851C32.8825 23.1929 34 19.8421 34 16.4047C34 7.3411 26.3925 0 17 0Z" fill="white"/>
</svg>
