<svg width="32" height="29" viewBox="0 0 32 29" fill="none" xmlns="http://www.w3.org/2000/svg">
<path d="M0 2.07713C0 0.929813 1.052 0 2.35 0H29.65C30.948 0 32 0.929813 32 2.07713V26.9229C32 28.0702 30.948 29 29.65 29H2.35C1.052 29 0 28.0702 0 26.9229V2.07713ZM9.886 24.2766V11.1813H5.084V24.2766H9.886ZM7.486 9.39238C9.16 9.39238 10.202 8.38825 10.202 7.13038C10.172 5.84531 9.162 4.86838 7.518 4.86838C5.874 4.86838 4.8 5.84713 4.8 7.13038C4.8 8.38825 5.842 9.39238 7.454 9.39238H7.486ZM17.302 24.2766V16.9632C17.302 16.5717 17.334 16.1802 17.462 15.9011C17.808 15.1199 18.598 14.3097 19.926 14.3097C21.664 14.3097 22.358 15.5096 22.358 17.2713V24.2766H27.16V16.7656C27.16 12.7419 24.792 10.8714 21.632 10.8714C19.084 10.8714 17.942 12.1401 17.302 13.0337V13.079H17.27L17.302 13.0337V11.1813H12.502C12.562 12.4102 12.502 24.2766 12.502 24.2766H17.302Z" fill="white"/>
</svg>
