<svg width="302" height="216" viewBox="0 0 302 216" fill="none" xmlns="http://www.w3.org/2000/svg">
<rect width="302" height="216" rx="20" fill="white"/>
<path d="M174.562 64.5H205.375V162.375H96.625V64.5H123.812" fill="#59AC98"/>
<path d="M149.188 60.875H174.562V84.4375H149.188V60.875Z" fill="#243242"/>
<path d="M149.188 77.1875H174.562V84.4375H149.188V77.1875Z" fill="#A8B0BC"/>
<path d="M158.25 60.875H165.5V77.1875H158.25V60.875Z" fill="#C1C8D1"/>
<path d="M192.688 69.9375H199.938V84.4375H192.688V69.9375Z" fill="#243242"/>
<path d="M180 69.9375H187.25V84.4375H180V69.9375Z" fill="#F2C351"/>
<path d="M156.438 60.875V53.625H167.312V60.875" fill="#E7E4DD"/>
<path d="M149.186 55.4375H152.809V60.875H149.186V55.4375Z" fill="#D5CEC2"/>
<path d="M170.936 55.4375H174.559V60.875H170.936V55.4375Z" fill="#D5CEC2"/>
<path d="M149.186 69.9375H154.621V73.5625H149.186V69.9375Z" fill="#4D5D7A"/>
<path d="M169.123 69.9375H174.559V73.5625H169.123V69.9375Z" fill="#4D5D7A"/>
<path d="M123.812 60.875H141.938V79H123.812V60.875Z" fill="#CBC3B6"/>
<path d="M131.061 66.3125H134.684V79H131.061V66.3125Z" fill="#E7E4DD"/>
<path d="M125.625 60.875V53.625H140.125V60.875" fill="#E7E4DD"/>
<path d="M131.061 53.625H134.684V60.875H131.061V53.625Z" fill="#D5CEC2"/>
<path d="M102.967 73.5607C101.468 73.5607 100.248 72.3409 100.248 70.8419C100.248 69.343 101.468 68.1232 102.967 68.1232C104.464 68.1232 105.684 69.343 105.684 70.8419C105.684 72.3409 104.464 73.5607 102.967 73.5607V73.5607ZM102.967 69.9375C102.467 69.9375 102.061 70.3435 102.061 70.8438C102.061 71.3422 102.467 71.75 102.967 71.75C103.465 71.75 103.871 71.344 103.871 70.8438C103.871 70.3435 103.465 69.9375 102.967 69.9375Z" fill="#243242"/>
<path d="M124.719 89.8732C123.22 89.8732 122 88.6534 122 87.1545C122 85.6555 123.22 84.4357 124.719 84.4357C126.216 84.4357 127.436 85.6555 127.436 87.1545C127.436 88.6534 126.216 89.8732 124.719 89.8732ZM124.719 86.25C124.218 86.25 123.812 86.656 123.812 87.1563C123.812 87.6547 124.218 88.0625 124.719 88.0625C125.217 88.0625 125.623 87.6565 125.623 87.1563C125.623 86.656 125.217 86.25 124.719 86.25Z" fill="#243242"/>
<path d="M131.969 89.8732C130.47 89.8732 129.25 88.6534 129.25 87.1545C129.25 85.6555 130.47 84.4357 131.969 84.4357C133.466 84.4357 134.686 85.6555 134.686 87.1545C134.686 88.6534 133.466 89.8732 131.969 89.8732ZM131.969 86.25C131.468 86.25 131.062 86.656 131.062 87.1563C131.062 87.6547 131.468 88.0625 131.969 88.0625C132.467 88.0625 132.873 87.6565 132.873 87.1563C132.873 86.656 132.467 86.25 131.969 86.25Z" fill="#243242"/>
<path d="M182.719 97.1232C181.22 97.1232 180 95.9034 180 94.4045C180 92.9055 181.22 91.6857 182.719 91.6857C184.216 91.6857 185.436 92.9055 185.436 94.4045C185.436 95.9034 184.216 97.1232 182.719 97.1232ZM182.719 93.5C182.219 93.5 181.813 93.906 181.813 94.4063C181.813 94.9047 182.219 95.3125 182.719 95.3125C183.217 95.3125 183.623 94.9065 183.623 94.4063C183.623 93.906 183.217 93.5 182.719 93.5Z" fill="#243242"/>
<path d="M175.469 97.1232C173.97 97.1232 172.75 95.9034 172.75 94.4045C172.75 92.9055 173.97 91.6857 175.469 91.6857C176.966 91.6857 178.186 92.9055 178.186 94.4045C178.186 95.9034 176.966 97.1232 175.469 97.1232ZM175.469 93.5C174.969 93.5 174.563 93.906 174.563 94.4063C174.563 94.9047 174.969 95.3125 175.469 95.3125C175.967 95.3125 176.373 94.9065 176.373 94.4063C176.373 93.906 175.967 93.5 175.469 93.5Z" fill="#243242"/>
<path d="M150.094 93.4982C148.595 93.4982 147.375 92.2784 147.375 90.7795C147.375 89.2805 148.595 88.0607 150.094 88.0607C151.591 88.0607 152.811 89.2805 152.811 90.7795C152.811 92.2784 151.591 93.4982 150.094 93.4982V93.4982ZM150.094 89.875C149.593 89.875 149.187 90.281 149.187 90.7813C149.187 91.2797 149.593 91.6875 150.094 91.6875C150.592 91.6875 150.998 91.2815 150.998 90.7813C150.998 90.281 150.592 89.875 150.094 89.875Z" fill="#243242"/>
<path d="M150.094 100.748C148.595 100.748 147.375 99.5284 147.375 98.0295C147.375 96.5305 148.595 95.3107 150.094 95.3107C151.591 95.3107 152.811 96.5305 152.811 98.0295C152.811 99.5284 151.591 100.748 150.094 100.748V100.748ZM150.094 97.125C149.593 97.125 149.187 97.531 149.187 98.0313C149.187 98.5297 149.593 98.9375 150.094 98.9375C150.592 98.9375 150.998 98.5315 150.998 98.0313C150.998 97.531 150.592 97.125 150.094 97.125Z" fill="#243242"/>
<path d="M124.719 97.1232C123.22 97.1232 122 95.9034 122 94.4045C122 92.9055 123.22 91.6857 124.719 91.6857C126.216 91.6857 127.436 92.9055 127.436 94.4045C127.436 95.9034 126.216 97.1232 124.719 97.1232ZM124.719 93.5C124.218 93.5 123.812 93.906 123.812 94.4063C123.812 94.9047 124.218 95.3125 124.719 95.3125C125.217 95.3125 125.623 94.9065 125.623 94.4063C125.623 93.906 125.217 93.5 124.719 93.5Z" fill="#243242"/>
<path d="M131.969 97.1232C130.47 97.1232 129.25 95.9034 129.25 94.4045C129.25 92.9055 130.47 91.6857 131.969 91.6857C133.466 91.6857 134.686 92.9055 134.686 94.4045C134.686 95.9034 133.466 97.1232 131.969 97.1232ZM131.969 93.5C131.468 93.5 131.062 93.906 131.062 94.4063C131.062 94.9047 131.468 95.3125 131.969 95.3125C132.467 95.3125 132.873 94.9065 132.873 94.4063C132.873 93.906 132.467 93.5 131.969 93.5Z" fill="#243242"/>
<path d="M102.967 158.746C101.468 158.746 100.248 157.527 100.248 156.029C100.248 154.531 101.468 153.311 102.967 153.311C104.464 153.311 105.684 154.531 105.684 156.029C105.684 157.527 104.464 158.746 102.967 158.746V158.746ZM102.967 155.123C102.467 155.123 102.061 155.529 102.061 156.029C102.061 156.528 102.467 156.934 102.967 156.934C103.465 156.934 103.871 156.528 103.871 156.029C103.871 155.529 103.465 155.123 102.967 155.123Z" fill="#243242"/>
<path d="M199.03 158.746C197.531 158.746 196.311 157.527 196.311 156.029C196.311 154.531 197.531 153.311 199.03 153.311C200.527 153.311 201.746 154.531 201.746 156.029C201.746 157.527 200.527 158.746 199.03 158.746ZM199.03 155.123C198.529 155.123 198.123 155.529 198.123 156.029C198.123 156.528 198.529 156.934 199.03 156.934C199.528 156.934 199.934 156.528 199.934 156.029C199.934 155.529 199.528 155.123 199.03 155.123Z" fill="#243242"/>
<path d="M195.406 146.059C193.907 146.059 192.688 144.839 192.688 143.342C192.688 141.843 193.907 140.623 195.406 140.623C196.903 140.623 198.123 141.843 198.123 143.342C198.123 144.839 196.903 146.059 195.406 146.059ZM195.406 142.436C194.906 142.436 194.5 142.842 194.5 143.342C194.5 143.84 194.906 144.246 195.406 144.246C195.905 144.246 196.311 143.84 196.311 143.342C196.311 142.842 195.905 142.436 195.406 142.436Z" fill="#243242"/>
<path d="M123.812 100.75H129.25V144.25H123.812V100.75Z" fill="#E7E4DD"/>
<path d="M112.938 86.25H118.375V129.75H112.938V86.25Z" fill="#4D5D7A"/>
<path d="M102.062 86.25H107.5V129.75H102.062V86.25Z" fill="#4D5D7A"/>
<path d="M156.438 146.062V140.625H189.062V146.062H156.438Z" fill="#4D5D7A"/>
<path d="M156.438 156.938V151.5H189.062V156.938H156.438Z" fill="#E7E4DD"/>
<path d="M138.312 93.5H143.75V144.25H138.312V93.5Z" fill="#E7E4DD"/>
<path d="M181.812 100.75H189.062V108H181.812V100.75Z" fill="#E7E4DD"/>
<path d="M169.125 100.75H176.375V108H169.125V100.75Z" fill="#CBC3B6"/>
<path d="M156.438 100.75H163.688V108H156.438V100.75Z" fill="#E7E4DD"/>
<path d="M163.688 120.688H181.812V135.188H163.688V120.688Z" fill="#243242"/>
<path d="M163.688 122.5L156.438 124.312V131.562L163.688 133.375" fill="#CBC3B6"/>
<path d="M163.686 126.123H176.371V129.746H163.686V126.123Z" fill="#E7E4DD"/>
<path d="M102.062 135.188H116.562V149.688H102.062V135.188Z" fill="#CBC3B6"/>
<path d="M111.121 146.059H107.498C106.496 146.059 105.686 145.249 105.686 144.246V140.623C105.686 139.621 106.496 138.811 107.498 138.811H111.121C112.124 138.811 112.934 139.621 112.934 140.623V144.246C112.934 145.249 112.124 146.059 111.121 146.059Z" fill="#E7E4DD"/>
<path d="M122 147.873H136.498V151.496H122V147.873Z" fill="#4D5D7A"/>
<path d="M122 153.311H136.498V156.934H122V153.311Z" fill="#4D5D7A"/>
<path d="M138.312 153.311H141.936V156.934H138.312V153.311Z" fill="#E39854"/>
<path d="M143.75 153.311H147.373V156.934H143.75V153.311Z" fill="#F2C351"/>
<path d="M149.188 153.311H152.811V156.934H149.188V153.311Z" fill="#E47C6E"/>
<path d="M198.123 120.686H201.746V124.309H198.123V120.686Z" fill="#E39854"/>
<path d="M198.123 126.123H201.746V129.746H198.123V126.123Z" fill="#F2C351"/>
<path d="M198.123 131.561H201.746V135.184H198.123V131.561Z" fill="#E47C6E"/>
<path d="M192.686 95.3125H201.746V98.9375H192.686V95.3125Z" fill="#4D5D7A"/>
<path d="M192.686 100.75H201.746V104.375H192.686V100.75Z" fill="#4D5D7A"/>
<path d="M192.686 106.188H201.746V109.812H192.686V106.188Z" fill="#4D5D7A"/>
<path d="M116.561 69.9375H120.184V80.8125H116.561V69.9375Z" fill="#E7E4DD"/>
<path d="M111.125 69.9375H114.748V80.8125H111.125V69.9375Z" fill="#E7E4DD"/>
<path d="M105.686 77.1875H109.309V80.8125H105.686V77.1875Z" fill="#E7E4DD"/>
<path d="M152.812 118.875C154.815 118.875 156.438 117.252 156.438 115.25C156.438 113.248 154.815 111.625 152.812 111.625C150.81 111.625 149.188 113.248 149.188 115.25C149.188 117.252 150.81 118.875 152.812 118.875Z" fill="#F2C351"/>
<path d="M163.686 115.248H167.309V120.684H163.686V115.248Z" fill="#4D5D7A"/>
<path d="M169.123 115.248H172.746V120.684H169.123V115.248Z" fill="#4D5D7A"/>
<path d="M174.561 115.248H178.184V120.684H174.561V115.248Z" fill="#4D5D7A"/>
<path d="M187.25 118.875H194.5V124.312H187.25V118.875Z" fill="#F2C351"/>
<path d="M187.25 129.75H194.5V135.188H187.25V129.75Z" fill="#243242"/>
</svg>
