<svg xmlns="http://www.w3.org/2000/svg" version="1.1" xmlns:xlink="http://www.w3.org/1999/xlink" xmlns:svgjs="http://svgjs.dev/svgjs" width="1000" height="1125" viewBox="0 0 1000 1125"><g transform="matrix(1,0,0,1,0.0011008540699322111,0)"><svg viewBox="0 0 320 360" data-background-color="#ffffff" preserveAspectRatio="xMidYMid meet" height="1125" width="1000" xmlns="http://www.w3.org/2000/svg" xmlns:xlink="http://www.w3.org/1999/xlink"><g id="tight-bounds" transform="matrix(1,0,0,1,0.00010353528136874957,0)"><svg viewBox="0 0 320 360" height="360" width="320"><g><svg></svg></g><g><svg viewBox="0 0 320 360" height="360" width="320"><g><path xmlns="http://www.w3.org/2000/svg" d="M307.925 179.999l6.575-11.387c11.322-19.607 4.604-44.679-15.003-56.001l-11.387-6.575v-13.151c0-22.639-18.354-40.994-40.994-40.994h-13.151l-6.575-11.387c-11.322-19.607-36.393-26.325-56.001-15.003l-11.39 6.572-11.387-6.576c-19.607-11.318-44.679-4.6-56.001 15.007l-6.575 11.387h-13.151c-22.639 0-40.994 18.354-40.994 40.994v13.151l-11.387 6.575c-19.607 11.322-26.325 36.393-15.003 56.001l6.572 11.387-6.576 11.387c-11.318 19.607-4.6 44.679 15.007 56l11.387 6.576v13.15c0 22.639 18.354 40.994 40.994 40.994h13.151l6.575 11.387c11.322 19.607 36.393 26.325 56.001 15.003l11.387-6.571 11.387 6.575c19.607 11.322 44.679 4.604 56-15.003l6.576-11.387h13.15c22.639 0 40.994-18.354 40.994-40.994v-13.151l11.387-6.575c19.607-11.322 26.325-36.393 15.003-56.001zM297.702 115.716c8.655 4.996 14.842 13.062 17.428 22.713 2.586 9.65 1.261 19.734-3.735 28.384l-5.538 9.596-17.747-30.74v-35.494zM251.155 271.155l-57.791 33.365h-66.731l-57.791-33.365-33.365-57.791v-66.731l33.365-57.791 57.791-33.365h66.731l57.791 33.365 33.365 57.791v66.731zM284.517 220.539v31.351l-27.151 15.676zM247.566 277.366l-15.676 27.151h-31.351zM187.15 308.106l-27.151 15.676-27.151-15.676zM119.459 304.517h-31.352l-15.676-27.151zM62.632 267.566l-27.151-15.676v-31.351zM31.891 207.15l-15.675-27.151 15.675-27.151zM35.481 139.459v-31.352l27.151-15.676zM72.431 82.632l15.676-27.151h31.352zM132.848 51.891l27.151-15.675 27.151 15.675zM200.539 55.481h31.351l15.676 27.151zM257.366 92.431l27.151 15.676v31.352zM288.106 152.848l15.676 27.151-15.676 27.151zM247.112 55.481c9.992 0 19.384 3.889 26.452 10.956 7.063 7.063 10.956 16.46 10.957 26.452v11.079l-30.741-17.747-17.747-30.74zM173.18 28.606c8.655-4.996 18.735-6.322 28.385-3.735 9.65 2.586 17.716 8.777 22.712 17.428l5.538 9.596h-35.494l-30.741-17.747zM95.716 42.295c4.996-8.655 13.062-14.842 22.713-17.428 9.65-2.586 19.734-1.261 28.384 3.736l9.596 5.537-30.74 17.747h-35.494zM35.481 92.885c0-9.992 3.889-19.384 10.956-26.452 7.063-7.063 16.46-10.956 26.452-10.956h11.079l-17.747 30.74-30.74 17.747zM8.606 166.817c-4.996-8.655-6.322-18.735-3.735-28.385 2.586-9.65 8.777-17.716 17.428-22.712l9.596-5.538v35.495l-17.747 30.74zM22.295 244.281c-8.655-4.996-14.842-13.062-17.428-22.712-2.586-9.65-1.261-19.734 3.736-28.385l5.537-9.596 17.747 30.74v35.495zM72.885 304.517c-9.992 0-19.384-3.889-26.452-10.957-7.063-7.063-10.956-16.46-10.956-26.451v-11.08l30.74 17.747 17.747 30.741zM146.817 331.391c-8.655 4.996-18.735 6.322-28.385 3.735-9.65-2.586-17.716-8.777-22.712-17.428l-5.538-9.596h35.495l30.74 17.747zM224.281 317.702c-4.996 8.655-13.062 14.842-22.712 17.428-9.65 2.586-19.734 1.261-28.385-3.735l-9.596-5.538 30.74-17.747h35.495zM284.517 267.112c0 9.992-3.889 19.384-10.957 26.452-7.063 7.063-16.46 10.956-26.451 10.957h-11.08l17.747-30.741 30.741-17.747zM315.13 221.565c-2.586 9.65-8.777 17.716-17.428 22.712l-9.596 5.538v-35.494l17.747-30.741 5.538 9.596c4.996 8.658 6.326 18.739 3.739 28.389z" fill="#915eff" fill-rule="nonzero" stroke="none" stroke-width="1" stroke-linecap="butt" stroke-linejoin="miter" stroke-miterlimit="10" stroke-dasharray="" stroke-dashoffset="0" font-family="none" font-weight="none" font-size="none" text-anchor="none" style="mix-blend-mode: normal" data-fill-palette-color="tertiary"></path></g><g transform="matrix(1,0,0,1,75.01466275659824,90)"><svg viewBox="0 0 169.97067448680352 180" height="180" width="169.97067448680352"><g><svg viewBox="0 0 169.97067448680352 180" height="180" width="169.97067448680352"><g><svg viewBox="0 0 169.97067448680352 180" height="180" width="169.97067448680352"><g><svg viewBox="0 0 169.97067448680352 180" height="180" width="169.97067448680352"><g id="textblocktransform"><svg viewBox="0 0 169.97067448680352 180" height="180" width="169.97067448680352" id="textblock"><g><svg viewBox="0 0 169.97067448680352 180" height="180" width="169.97067448680352"><g transform="matrix(1,0,0,1,0,0)"><svg width="169.97067448680352" viewBox="2.5999999046325684 -33.95000076293945 32.20000076293945 34.10000228881836" height="180" data-palette-color="#915eff"><path d="M2.6 0.15L2.6 0.15Q2.6-0.6 2.65-1.23 2.7-1.85 2.85-2.25L2.85-2.25Q4.2-2.35 4.95-2.78 5.7-3.2 6.03-4.25 6.35-5.3 6.35-7.3L6.35-7.3 6.35-27Q6.35-28.8 6.05-29.73 5.75-30.65 5-31.05 4.25-31.45 2.9-31.55L2.9-31.55Q2.75-32 2.7-32.65 2.65-33.3 2.65-33.95L2.65-33.95Q3.5-33.9 4.8-33.88 6.1-33.85 7.53-33.83 8.95-33.8 10.2-33.8L10.2-33.8Q11.55-33.8 13.03-33.85 14.5-33.9 16-33.9L16-33.9Q18.65-33.9 21.35-33.52 24.05-33.15 26.48-32.18 28.9-31.2 30.78-29.38 32.65-27.55 33.73-24.73 34.8-21.9 34.8-17.75L34.8-17.75Q34.8-13.7 33.8-10.8 32.8-7.9 31.15-5.95 29.5-4 27.45-2.8 25.4-1.6 23.28-1 21.15-0.4 19.23-0.2 17.3 0 15.95 0L15.95 0Q14.55 0 12.68 0 10.8 0 8.83 0.03 6.85 0.05 5.2 0.08 3.55 0.1 2.6 0.15ZM16.25-2.5L16.25-2.5Q18.9-2.5 21.18-3.15 23.45-3.8 25.2-5.43 26.95-7.05 27.93-9.88 28.9-12.7 28.9-17L28.9-17Q28.9-21 27.78-23.85 26.65-26.7 24.7-28.43 22.75-30.15 20.33-30.93 17.9-31.7 15.3-31.7L15.3-31.7Q14.25-31.7 13.03-31.53 11.8-31.35 11.4-31.05L11.4-31.05 11.85-32.5 11.85-7.3Q11.85-5.4 12.2-4.35 12.55-3.3 13.53-2.9 14.5-2.5 16.25-2.5Z" opacity="1" transform="matrix(1,0,0,1,0,0)" fill="#915eff" class="wordmark-text-0" data-fill-palette-color="primary" id="text-0"></path></svg></g></svg></g></svg></g></svg></g><g></g></svg></g></svg></g></svg></g></svg></g><defs></defs></svg><rect width="320" height="360" fill="none" stroke="none" visibility="hidden"></rect></g></svg></g></svg>