<svg width="453" height="438" viewBox="0 0 453 438" fill="none" xmlns="http://www.w3.org/2000/svg">
<rect x="223" y="25" width="15" height="92" rx="5" fill="#743100"/>
<rect width="15" height="92" rx="5" transform="matrix(1 0 0 -1 223 416)" fill="#743100"/>
<rect x="225" width="10" height="30" rx="5" fill="#743100"/>
<rect width="10" height="30" rx="5" transform="matrix(1 0 0 -1 225 438)" fill="#743100"/>
<rect width="15.1775" height="92.6624" rx="5" transform="matrix(0 -1 -1 0 429.762 222.943)" fill="#743100"/>
<rect width="9.58577" height="30.3549" rx="4.79288" transform="matrix(0 -1 -1 0 452.128 219.749)" fill="#743100"/>
<rect width="15.1775" height="92.6624" rx="5" transform="matrix(0 1 1 0 22.3662 215.755)" fill="#743100"/>
<rect width="9.58577" height="30.3549" rx="4.79288" transform="matrix(0 1 1 0 0 218.95)" fill="#743100"/>
<rect width="15.1775" height="92.6624" rx="5" transform="matrix(0.707107 -0.707107 -0.707107 -0.707107 367.475 371.89)" fill="#743100"/>
<rect width="9.58577" height="30.3549" rx="4.79288" transform="matrix(0.707107 -0.707107 -0.707107 -0.707107 385.55 385.446)" fill="#743100"/>
<rect width="15.1775" height="92.6624" rx="5" transform="matrix(0.707107 0.707107 0.707107 -0.707107 80.5186 361.159)" fill="#743100"/>
<rect width="9.58577" height="30.3549" rx="4.79288" transform="matrix(0.707107 0.707107 0.707107 -0.707107 66.9624 379.234)" fill="#743100"/>
<rect x="367.474" y="71.8066" width="15.1775" height="92.6624" rx="5" transform="rotate(45 367.474 71.8066)" fill="#743100"/>
<rect x="385.549" y="58.2505" width="9.58577" height="30.3549" rx="4.79288" transform="rotate(45 385.549 58.2505)" fill="#743100"/>
<rect x="74.1289" y="84.936" width="15.1775" height="92.6624" rx="5" transform="rotate(-45 74.1289 84.936)" fill="#743100"/>
<rect x="60.5728" y="66.8608" width="9.58577" height="30.3549" rx="4.79288" transform="rotate(-45 60.5728 66.8608)" fill="#743100"/>
<ellipse cx="230" cy="219.5" rx="116" ry="116.5" fill="#FFEECE"/>
<circle cx="230" cy="219" r="143" stroke="#743100" stroke-width="20"/>
<path d="M278.53 241.912C278.176 260.349 256.8 258.991 230.008 258.528C203.216 258.065 181.318 258.674 181.672 240.237C182.026 221.799 204.186 199.394 230.979 199.857C257.771 200.32 278.884 223.474 278.53 241.912Z" fill="#E55946"/>
<path d="M231.383 198.809C216.435 198.453 201.804 205.126 191.687 216.097C187.688 220.434 184.35 225.485 182.373 231.064C181.398 233.815 180.763 236.702 180.638 239.623C180.558 241.489 180.673 243.382 181.117 245.201C181.392 246.33 181.794 247.427 182.33 248.458C185.203 253.982 191.374 256.327 197.127 257.538C201.94 258.552 206.869 258.915 211.775 259.146C217.699 259.425 223.633 259.463 229.563 259.561C235.379 259.657 241.193 259.808 247.01 259.774C251.841 259.745 256.706 259.581 261.487 258.848C267.274 257.96 273.676 256.078 277.061 250.906C277.592 250.095 278.03 249.224 278.381 248.32C278.865 247.073 278.501 247.849 279.467 242.412C279.543 242.265 279.593 242.109 279.595 241.933C279.405 238.29 279.559 239.504 279.413 238.292C279.135 235.971 278.57 233.684 277.795 231.479C275.409 224.685 271.104 218.609 265.937 213.638C261.549 209.417 256.456 205.921 250.917 203.387C245.705 201.003 240.098 199.478 234.385 198.98C233.387 198.893 232.379 198.833 231.383 198.809ZM230.212 200.939C231.537 200.938 232.867 200.992 234.193 201.109C247.409 202.268 259.897 209.18 268.321 219.365C272.242 224.105 275.4 229.653 276.773 235.684C277.073 236.999 276.772 235.677 277.444 241.911C277.444 241.975 277.466 242.032 277.476 242.093C277.055 245.62 277.316 244.639 277.008 245.893C276.734 247.008 276.333 248.093 275.773 249.097C272.808 254.417 266.197 256.125 260.604 256.921C255.983 257.579 251.288 257.704 246.627 257.73C241.087 257.761 235.558 257.614 230.02 257.517C224.463 257.42 218.894 257.38 213.34 257.155C208.837 256.974 204.323 256.691 199.873 255.952C198.909 255.792 197.943 255.602 196.989 255.388C192.332 254.345 187.21 252.473 184.587 248.203C184.154 247.498 183.797 246.747 183.522 245.967C183.058 244.648 182.817 243.252 182.735 241.858C182.448 236.968 183.904 232.078 186.077 227.743C190.018 219.883 196.518 213.331 203.929 208.688C211.799 203.758 220.938 200.941 230.212 200.939Z" fill="#E55946"/>
<path d="M284.013 190.538C285.843 183.898 289.301 179.059 291.736 179.73C294.171 180.401 294.661 186.328 292.831 192.969C291 199.61 287.542 204.449 285.107 203.778C282.672 203.107 282.182 197.179 284.013 190.538Z" fill="#E55946"/>
<path d="M290.918 179C288.953 179.005 287.263 180.834 286.21 182.31C285.941 182.687 285.709 183.054 285.469 183.451C285.247 183.817 285.016 184.48 282.601 190.313C282.462 190.474 282.359 190.663 282.301 190.883C281.158 198.144 281.208 195.695 281.146 198.145C281.105 199.737 281.203 201.401 281.717 202.924C281.921 203.528 282.209 204.115 282.601 204.622C282.883 204.986 283.217 205.298 283.614 205.535C285.932 206.916 288.28 204.938 289.648 203.181C289.905 202.851 290.19 202.459 290.419 202.111C290.681 201.71 290.912 201.316 291.146 200.898C292.06 199.265 292.775 197.525 293.358 195.748C294.227 193.096 294.817 190.322 294.969 187.531C295.06 185.886 295.011 184.183 294.584 182.581C294.419 181.958 294.192 181.35 293.857 180.797C293.578 180.337 293.227 179.914 292.787 179.599C292.483 179.382 292.149 179.213 291.789 179.114C291.498 179.034 291.199 178.999 290.918 179ZM290.804 181.782C291.22 181.713 291.447 182.027 291.689 182.595C291.932 183.17 292.054 183.804 292.131 184.421C292.148 184.559 292.178 184.781 292.188 184.92C292.245 185.735 292.236 186.559 292.188 187.374C292.1 188.844 291.869 190.304 291.546 191.739C290.818 194.969 289.653 198.287 287.708 200.998C287.419 201.401 287.12 201.778 286.781 202.139C286.574 202.359 286.34 202.561 286.096 202.738C285.872 202.901 285.501 203.169 285.197 203.11C284.919 203.054 284.733 202.676 284.627 202.453C284.27 201.702 284.13 200.822 284.07 199.999C284.057 199.809 284.05 199.62 284.042 199.429C284.033 199.232 284.029 199.041 284.028 198.844C284.022 197.958 284.019 198.85 285.083 191.625C285.106 191.538 285.091 191.455 285.097 191.369C286.347 187.831 285.98 188.567 286.581 187.231C287.175 185.914 287.871 184.621 288.764 183.48C289.04 183.126 289.331 182.784 289.663 182.481C289.866 182.296 290.083 182.123 290.319 181.981C290.507 181.868 290.665 181.805 290.804 181.782Z" fill="#E55946"/>
<path d="M281.664 190.737C278.916 184.637 276.014 180.472 275.183 181.434C274.35 182.395 275.904 188.12 278.652 194.219C281.4 200.319 284.302 204.484 285.134 203.523C285.966 202.561 284.413 196.836 281.664 190.737Z" fill="#E55946"/>
<path d="M275.817 179.926C275.515 179.867 275.214 179.863 274.918 179.955C273.585 180.37 273.47 181.901 273.577 183.065C273.78 185.266 274.504 187.441 275.232 189.513C276.216 192.312 277.387 195.055 278.727 197.701C279.355 198.939 280.027 200.151 280.767 201.325C281.498 202.484 282.463 204.07 283.72 204.763C284.013 204.925 284.339 205.032 284.676 205.048C286.316 205.128 286.795 203.562 286.745 202.238C286.673 200.362 286.755 202.246 282.95 190.112C282.879 189.952 282.766 189.817 282.651 189.698C280.924 186.225 281.24 186.71 280.425 185.262C279.749 184.06 279.024 182.866 278.171 181.781C277.735 181.227 277.257 180.669 276.659 180.283C276.404 180.119 276.116 179.985 275.817 179.926ZM276.573 184.277C276.751 184.535 276.948 184.784 277.115 185.048C277.54 185.718 277.414 185.607 280.24 190.997C280.26 191.093 280.255 191.188 280.296 191.282C282.329 196.31 281.732 194.613 282.336 196.318C282.697 197.333 283.023 198.359 283.307 199.399C283.389 199.7 283.434 200.008 283.506 200.312C283.394 200.141 283.273 199.97 283.164 199.799C282.596 198.904 282.077 197.981 281.58 197.045C279.922 193.92 278.5 190.637 277.401 187.273C277.085 186.307 276.789 185.303 276.573 184.277Z" fill="#E55946"/>
<path d="M180.105 192.428C182.853 186.328 185.755 182.163 186.587 183.124C187.419 184.086 185.866 189.811 183.118 195.91C180.369 202.01 177.467 206.175 176.636 205.214C175.803 204.252 177.357 198.527 180.105 192.428Z" fill="#E55946"/>
<path d="M185.952 181.617C186.254 181.557 186.556 181.554 186.851 181.646C188.184 182.061 188.299 183.592 188.192 184.756C187.989 186.957 187.265 189.132 186.537 191.204C185.554 194.003 184.383 196.746 183.042 199.392C182.415 200.63 181.742 201.842 181.002 203.016C180.272 204.175 179.306 205.761 178.049 206.454C177.756 206.616 177.43 206.723 177.093 206.739C175.454 206.819 174.974 205.253 175.025 203.929C175.097 202.053 175.015 203.937 178.82 191.803C178.891 191.643 179.004 191.508 179.119 191.389C180.846 187.916 180.53 188.401 181.344 186.953C182.021 185.751 182.745 184.557 183.599 183.472C184.034 182.917 184.513 182.36 185.111 181.974C185.365 181.809 185.653 181.676 185.952 181.617ZM185.196 185.968C185.018 186.226 184.821 186.475 184.654 186.739C184.23 187.409 184.355 187.298 181.53 192.688C181.509 192.783 181.514 192.879 181.473 192.973C179.44 198.001 180.038 196.304 179.433 198.009C179.072 199.024 178.746 200.05 178.463 201.09C178.381 201.391 178.335 201.699 178.263 202.003C178.376 201.832 178.497 201.661 178.605 201.49C179.174 200.595 179.692 199.672 180.189 198.736C181.847 195.611 183.269 192.328 184.369 188.964C184.685 187.998 184.98 186.994 185.196 185.968Z" fill="#E55946"/>
<path d="M236.427 219.003C236.26 218.988 236.084 219.033 235.942 219.113C233.556 220.456 229.401 220.356 226.974 219.113C226.695 218.97 226.32 219.011 226.119 219.209C225.918 219.406 225.977 219.686 226.255 219.828C229.185 221.326 233.868 221.449 236.757 219.842C237.042 219.683 237.079 219.383 236.854 219.181C236.742 219.081 236.594 219.016 236.427 219.003Z" fill="black"/>
<path d="M189.051 251.288C186.933 253.405 185.684 255.614 185.028 258.566Z" fill="#E55946"/>
<path d="M189.063 248.287C188.276 248.301 187.498 248.603 186.909 249.214C185.346 250.825 183.949 252.594 183.014 254.65C182.542 255.689 182.222 256.77 181.944 257.874C181.521 259.616 182.584 261.359 184.326 261.782C186.069 262.206 187.827 261.143 188.25 259.4C188.581 257.97 189.035 256.551 189.833 255.306C190.262 254.637 190.784 254.066 191.331 253.494C192.51 252.272 192.468 250.321 191.246 249.143C190.635 248.554 189.85 248.273 189.063 248.287Z" fill="#E55946"/>
<path d="M268.985 256.236C270.241 258.245 271.298 259.971 272.242 262.174Z" fill="#E55946"/>
<path d="M268.575 253.273C268.181 253.336 267.794 253.476 267.434 253.701C265.993 254.599 265.551 256.497 266.45 257.938C267.568 259.751 268.506 261.638 269.36 263.587C270.097 265.222 272.019 265.936 273.654 265.199C275.289 264.462 276.017 262.54 275.28 260.905C274.932 260.154 274.589 259.416 274.182 258.694C273.409 257.322 272.511 256.017 271.671 254.685C270.997 253.605 269.759 253.085 268.575 253.273Z" fill="#E55946"/>
<path d="M271.461 224.234C278.374 219.625 280.51 212.684 283.719 205.464Z" fill="#E55946"/>
<path d="M283.828 202.286C282.563 202.272 281.356 203.008 280.819 204.241C279.991 206.157 279.175 208.086 278.35 210.004C277.183 212.719 275.914 215.451 274.085 217.793C272.871 219.347 271.429 220.662 269.805 221.773C268.403 222.73 268.035 224.636 268.992 226.039C269.949 227.441 271.869 227.809 273.272 226.852C276.273 224.809 278.773 222.211 280.762 219.177C283.277 215.338 284.928 211.019 286.767 206.837C287.484 205.193 286.742 203.288 285.098 202.571C284.687 202.392 284.25 202.291 283.828 202.286Z" fill="#E55946"/>
<path d="M187.125 219.771C181.339 217.36 178.123 212.205 178.123 205.98Z" fill="#E55946"/>
<path d="M178.127 202.803C176.334 202.839 174.909 204.32 174.946 206.113C174.99 207.892 175.177 209.648 175.673 211.363C176.814 215.31 179.377 218.722 182.806 220.978C183.805 221.635 184.853 222.165 185.945 222.647C187.497 223.334 189.309 222.631 189.996 221.078C190.684 219.525 189.994 217.714 188.441 217.026C187.316 216.527 186.263 215.939 185.317 215.143C182.571 212.831 181.487 209.464 181.437 205.97C181.401 204.178 179.92 202.767 178.127 202.803Z" fill="#E55946"/>
<path d="M177.995 191.776C176.165 185.135 172.707 180.296 170.272 180.967C167.837 181.639 167.347 187.566 169.177 194.207C171.008 200.848 174.466 205.687 176.901 205.016C179.336 204.345 179.826 198.417 177.995 191.776Z" fill="#E55946"/>
<path d="M171.09 180.238C173.055 180.243 174.745 182.072 175.797 183.547C176.067 183.925 176.299 184.292 176.539 184.689C176.761 185.054 176.992 185.718 179.407 191.551C179.546 191.712 179.648 191.901 179.706 192.121C180.85 199.381 180.799 196.933 180.862 199.382C180.903 200.975 180.805 202.639 180.291 204.162C180.087 204.766 179.799 205.353 179.407 205.859C179.124 206.224 178.791 206.536 178.394 206.772C176.076 208.154 173.728 206.176 172.359 204.419C172.103 204.089 171.818 203.697 171.589 203.349C171.326 202.948 171.095 202.554 170.862 202.136C169.948 200.503 169.232 198.762 168.65 196.986C167.781 194.333 167.191 191.56 167.038 188.769C166.948 187.123 166.997 185.421 167.424 183.819C167.589 183.196 167.816 182.587 168.151 182.035C168.43 181.575 168.781 181.152 169.221 180.837C169.525 180.619 169.859 180.451 170.219 180.352C170.51 180.272 170.809 180.237 171.09 180.238ZM171.204 183.02C170.788 182.95 170.56 183.264 170.319 183.833C170.076 184.408 169.954 185.042 169.877 185.659C169.86 185.797 169.83 186.019 169.82 186.158C169.763 186.973 169.771 187.797 169.82 188.612C169.908 190.082 170.139 191.541 170.462 192.977C171.189 196.206 172.355 199.525 174.3 202.236C174.589 202.639 174.888 203.016 175.227 203.377C175.434 203.597 175.668 203.799 175.912 203.976C176.136 204.139 176.506 204.407 176.81 204.347C177.089 204.292 177.275 203.914 177.381 203.691C177.738 202.94 177.878 202.06 177.937 201.237C177.951 201.047 177.958 200.857 177.966 200.667C177.974 200.47 177.979 200.279 177.98 200.082C177.985 199.196 177.989 200.088 176.925 192.863C176.902 192.776 176.917 192.693 176.91 192.606C175.661 189.069 176.028 189.805 175.427 188.469C174.833 187.152 174.137 185.858 173.244 184.718C172.967 184.364 172.677 184.022 172.345 183.719C172.142 183.533 171.925 183.361 171.689 183.219C171.501 183.106 171.342 183.043 171.204 183.02Z" fill="#E55946"/>
<path d="M186.205 181.067C186.504 181.007 186.803 181.004 187.095 181.095C188.416 181.51 188.53 183.037 188.424 184.199C188.223 186.395 187.506 188.567 186.784 190.634C185.81 193.428 184.649 196.164 183.321 198.806C182.699 200.041 182.032 201.25 181.299 202.422C180.575 203.579 179.619 205.161 178.373 205.853C178.083 206.014 177.76 206.121 177.426 206.138C175.801 206.217 175.326 204.654 175.376 203.333C175.447 201.461 175.366 203.341 179.136 191.232C179.207 191.072 179.319 190.937 179.433 190.819C181.144 187.353 180.831 187.836 181.638 186.391C182.309 185.192 183.026 184.001 183.872 182.917C184.304 182.364 184.778 181.808 185.37 181.423C185.623 181.259 185.908 181.126 186.205 181.067ZM185.455 185.409C185.279 185.666 185.084 185.915 184.918 186.178C184.497 186.846 184.622 186.736 181.822 192.115C181.802 192.21 181.807 192.306 181.766 192.399C179.752 197.417 180.344 195.724 179.744 197.425C179.387 198.439 179.064 199.462 178.783 200.5C178.702 200.801 178.656 201.107 178.585 201.411C178.697 201.241 178.817 201.07 178.924 200.899C179.487 200.006 180.001 199.085 180.493 198.151C182.136 195.032 183.546 191.756 184.635 188.398C184.948 187.435 185.241 186.432 185.455 185.409Z" fill="#E55946"/>
<ellipse cx="212" cy="195" rx="8" ry="15" fill="white"/>
<ellipse cx="215.5" cy="200" rx="4.5" ry="8" fill="black"/>
<ellipse cx="248" cy="194" rx="8" ry="15" fill="white"/>
<ellipse cx="245" cy="200" rx="4" ry="8" fill="black"/>
<path d="M163.405 288.351L157.919 291.153L157.371 290.543L159.38 289.317L165.145 286.431L165.689 287.036L163.405 288.351ZM160.224 293.714L163.589 288.731L165.29 286.592L165.831 287.193L160.976 294.551L160.224 293.714ZM160.168 284.937L155.023 287.934L154.267 287.093L161.884 282.807L162.425 283.408L160.168 284.937ZM157.288 290.452L160.54 285.166L162.025 282.963L162.57 283.569L159.2 289.117L157.829 291.053L157.288 290.452Z" fill="black"/>
<path d="M150.124 267.746L150.908 267.265L153.207 271.154L152.423 271.634L150.124 267.746ZM145.818 275.417L153.09 270.957L153.666 271.93L146.394 276.391L145.818 275.417ZM147.066 270.322L147.85 269.841L149.845 273.215L149.061 273.696L147.066 270.322ZM143.665 271.775L144.454 271.291L146.724 275.13L145.934 275.614L143.665 271.775Z" fill="black"/>
<path d="M143.596 253.459L144.451 253.121L145.972 257.106L145.117 257.445L143.596 253.459ZM137.961 260.04L145.893 256.898L146.296 257.955L138.364 261.096L137.961 260.04Z" fill="black"/>
<path d="M137.707 238.374L137.496 237.269C138.036 237.221 138.538 237.279 139.003 237.441C139.467 237.604 139.865 237.885 140.196 238.285C140.523 238.686 140.751 239.222 140.879 239.894C140.973 240.385 140.967 240.85 140.86 241.29C140.752 241.725 140.557 242.12 140.275 242.475C139.989 242.831 139.624 243.134 139.179 243.386C138.729 243.635 138.211 243.817 137.625 243.934L136.792 244.099C136.206 244.216 135.66 244.244 135.156 244.185C134.647 244.123 134.194 243.98 133.797 243.756C133.4 243.529 133.07 243.226 132.806 242.848C132.543 242.47 132.362 242.022 132.263 241.504C132.142 240.871 132.159 240.312 132.312 239.828C132.466 239.343 132.731 238.938 133.106 238.613C133.477 238.284 133.933 238.036 134.473 237.869L134.685 238.974C134.304 239.106 133.988 239.272 133.736 239.473C133.48 239.675 133.302 239.926 133.2 240.225C133.098 240.524 133.088 240.89 133.171 241.324C133.242 241.696 133.376 242.01 133.572 242.266C133.767 242.518 134.014 242.714 134.311 242.854C134.607 242.99 134.947 243.07 135.329 243.093C135.711 243.117 136.125 243.085 136.569 242.996L137.414 242.829C137.824 242.747 138.201 242.628 138.545 242.472C138.888 242.313 139.179 242.117 139.417 241.887C139.655 241.656 139.827 241.389 139.932 241.086C140.033 240.783 140.048 240.445 139.977 240.073C139.887 239.601 139.74 239.24 139.537 238.99C139.334 238.739 139.079 238.571 138.773 238.484C138.465 238.394 138.11 238.357 137.707 238.374Z" fill="black"/>
<path d="M134.343 219.316L134.882 219.316C135.523 219.316 136.097 219.396 136.605 219.556C137.113 219.716 137.544 219.947 137.899 220.247C138.255 220.548 138.526 220.909 138.714 221.331C138.901 221.749 138.995 222.218 138.994 222.738C138.994 223.241 138.9 223.704 138.713 224.126C138.525 224.544 138.254 224.908 137.898 225.216C137.542 225.521 137.111 225.757 136.603 225.925C136.095 226.093 135.521 226.178 134.88 226.178L134.341 226.178C133.7 226.178 133.128 226.096 132.624 225.932C132.117 225.764 131.685 225.528 131.33 225.223C130.97 224.918 130.697 224.557 130.51 224.139C130.322 223.717 130.229 223.255 130.229 222.751C130.229 222.231 130.323 221.762 130.51 221.344C130.698 220.922 130.972 220.561 131.331 220.26C131.687 219.955 132.118 219.723 132.626 219.563C133.13 219.399 133.702 219.316 134.343 219.316ZM134.882 220.435L134.331 220.436C133.823 220.436 133.374 220.488 132.983 220.594C132.593 220.696 132.265 220.846 131.999 221.045C131.733 221.245 131.532 221.489 131.395 221.778C131.258 222.063 131.19 222.387 131.19 222.75C131.19 223.102 131.258 223.42 131.395 223.706C131.531 223.987 131.732 224.229 131.998 224.432C132.263 224.631 132.591 224.785 132.982 224.895C133.373 225.004 133.822 225.059 134.33 225.059L134.88 225.058C135.392 225.058 135.845 225.004 136.24 224.894C136.631 224.785 136.961 224.628 137.23 224.425C137.496 224.218 137.697 223.974 137.834 223.693C137.971 223.408 138.039 223.089 138.039 222.738C138.039 222.37 137.971 222.044 137.835 221.759C137.698 221.474 137.497 221.234 137.231 221.039C136.962 220.839 136.632 220.689 136.241 220.588C135.847 220.486 135.394 220.435 134.882 220.435Z" fill="black"/>
<path d="M131.409 205.163L131.638 204.091L139.013 202.86L132.805 198.631L133.035 197.553L140.64 202.788L140.461 203.624L131.409 205.163ZM131.334 205.512L131.536 204.567L136.65 205.536L139.899 206.254L139.664 207.355L131.334 205.512ZM132.906 198.155L133.108 197.21L141.438 199.052L141.203 200.152L137.954 199.433L132.906 198.155Z" fill="black"/>
<path d="M146.442 181.645L147.282 182.02L145.492 186.168L144.653 185.793L146.442 181.645ZM137.794 182.477L145.583 185.958L145.135 186.997L137.346 183.516L137.794 182.477ZM142.605 180.585L143.445 180.96L141.892 184.559L141.052 184.184L142.605 180.585ZM139.47 178.593L140.315 178.971L138.549 183.065L137.704 182.687L139.47 178.593Z" fill="black"/>
<path d="M161.28 147.54L167.041 153.832L166.234 154.599L160.472 148.307L161.28 147.54ZM163.268 145.652L163.893 146.335L159.113 150.874L158.488 150.191L163.268 145.652Z" fill="black"/>
<path d="M180.798 137.419L181.08 137.878C181.415 138.425 181.647 138.957 181.777 139.476C181.907 139.995 181.938 140.487 181.87 140.951C181.802 141.416 181.639 141.841 181.381 142.227C181.126 142.611 180.78 142.943 180.341 143.221C179.916 143.492 179.476 143.66 179.022 143.726C178.571 143.791 178.123 143.754 177.677 143.617C177.234 143.477 176.809 143.236 176.402 142.893C175.995 142.55 175.624 142.105 175.289 141.559L175.008 141.099C174.673 140.553 174.443 140.021 174.319 139.503C174.195 138.98 174.169 138.486 174.24 138.019C174.31 137.549 174.472 137.122 174.727 136.738C174.985 136.352 175.327 136.024 175.752 135.753C176.19 135.475 176.635 135.303 177.086 135.239C177.54 135.172 177.987 135.212 178.429 135.357C178.872 135.496 179.293 135.74 179.694 136.087C180.096 136.429 180.464 136.873 180.798 137.419ZM180.136 138.479L179.848 138.009C179.583 137.576 179.303 137.221 179.01 136.945C178.72 136.666 178.422 136.467 178.115 136.348C177.808 136.228 177.497 136.187 177.182 136.226C176.87 136.262 176.56 136.378 176.254 136.573C175.957 136.761 175.724 136.99 175.555 137.26C175.389 137.527 175.29 137.829 175.257 138.164C175.228 138.498 175.269 138.86 175.381 139.252C175.492 139.644 175.681 140.056 175.946 140.489L176.234 140.959C176.501 141.395 176.784 141.752 177.083 142.03C177.379 142.304 177.683 142.502 177.996 142.623C178.309 142.738 178.62 142.779 178.929 142.744C179.241 142.708 179.545 142.596 179.842 142.407C180.152 142.21 180.392 141.977 180.561 141.707C180.73 141.438 180.828 141.137 180.854 140.806C180.881 140.469 180.836 140.107 180.717 139.72C180.597 139.329 180.403 138.915 180.136 138.479Z" fill="black"/>
<path d="M216.578 126.584L215.726 120.603L216.839 120.438L217.691 126.419C217.77 126.976 217.723 127.462 217.55 127.879C217.376 128.296 217.103 128.634 216.73 128.895C216.36 129.151 215.916 129.318 215.398 129.394C214.88 129.471 214.408 129.45 213.981 129.332C213.554 129.213 213.2 128.989 212.92 128.66C212.641 128.33 212.461 127.889 212.383 127.335L213.501 127.17C213.552 127.526 213.659 127.808 213.823 128.017C213.987 128.225 214.192 128.367 214.44 128.44C214.691 128.514 214.967 128.528 215.268 128.484C215.562 128.44 215.816 128.339 216.03 128.181C216.248 128.019 216.407 127.804 216.507 127.536C216.606 127.265 216.63 126.947 216.578 126.584Z" fill="black"/>
<path d="M234.106 119.643L235.23 119.682L235.036 125.45C235.014 126.091 234.854 126.619 234.554 127.034C234.255 127.45 233.865 127.757 233.386 127.955C232.91 128.15 232.397 128.238 231.847 128.219C231.269 128.199 230.749 128.076 230.288 127.849C229.831 127.618 229.473 127.285 229.214 126.85C228.959 126.415 228.842 125.878 228.864 125.237L229.058 119.469L230.176 119.508L229.982 125.276C229.967 125.721 230.037 126.091 230.191 126.385C230.345 126.68 230.566 126.903 230.854 127.053C231.146 127.204 231.487 127.286 231.878 127.3C232.272 127.313 232.618 127.255 232.916 127.124C233.217 126.994 233.455 126.787 233.628 126.504C233.802 126.221 233.896 125.857 233.911 125.412L234.106 119.643Z" fill="black"/>
<path d="M251.02 129.644L250.83 130.544L246.663 129.63L246.854 128.73L251.02 129.644ZM248.65 121.331L246.881 129.677L245.776 129.435L247.545 121.089L248.65 121.331Z" fill="black"/>
<path d="M264.91 126.009L261.934 134.004L260.879 133.597L263.855 125.602L264.91 126.009Z" fill="black"/>
<path d="M278.144 133.085L271.898 138.446L270.9 137.865L277.886 132.061L278.53 132.435L278.144 133.085ZM276.385 141.056L277.744 132.853L278.099 132.185L278.742 132.559L277.388 141.639L276.385 141.056ZM277.804 138.228L277.351 139.036L273.208 136.626L273.661 135.818L277.804 138.228Z" fill="black"/>
<path d="M296.317 145.345L290.803 151.855L289.949 151.105L290.974 143.249L286.722 148.271L285.872 147.524L291.386 141.014L292.236 141.76L291.212 149.641L295.476 144.606L296.317 145.345Z" fill="black"/>
<path d="M309.71 160.237L303.014 165.524L302.326 164.619L304.889 157.124L299.724 161.202L299.039 160.302L305.735 155.015L306.42 155.915L303.854 163.435L309.032 159.347L309.71 160.237Z" fill="black"/>
<path d="M312.644 179.899L311.828 180.326L309.796 176.291L310.612 175.865L312.644 179.899ZM317.46 172.544L309.899 176.495L309.391 175.485L316.952 171.534L317.46 172.544ZM315.87 177.539L315.054 177.965L313.291 174.464L314.107 174.038L315.87 177.539ZM319.363 176.322L318.543 176.751L316.537 172.768L317.358 172.34L319.363 176.322Z" fill="black"/>
<path d="M324.536 187.818L323.828 188.067C323.607 188.144 323.36 188.187 323.087 188.196C322.818 188.207 322.546 188.181 322.268 188.117C321.995 188.051 321.739 187.946 321.5 187.802L321.705 187.072C322.007 187.161 322.301 187.205 322.585 187.205C322.874 187.207 323.168 187.156 323.467 187.051L324.191 186.797L324.536 187.818Z" fill="black"/>
<path d="M321.669 204.181C321.865 204.144 322.032 204.081 322.171 203.992C322.314 203.905 322.434 203.776 322.53 203.603C322.626 203.434 322.707 203.208 322.771 202.926C322.836 202.647 322.89 202.299 322.934 201.882C322.982 201.444 323.051 201.043 323.141 200.681C323.234 200.317 323.357 199.998 323.51 199.723C323.663 199.448 323.855 199.224 324.085 199.049C324.316 198.875 324.594 198.757 324.921 198.696C325.247 198.635 325.56 198.646 325.861 198.729C326.162 198.812 326.436 198.959 326.685 199.171C326.938 199.386 327.154 199.657 327.332 199.986C327.51 200.314 327.638 200.693 327.715 201.124C327.829 201.754 327.804 202.311 327.641 202.795C327.483 203.282 327.23 203.677 326.884 203.98C326.542 204.282 326.152 204.475 325.714 204.557L325.514 203.449C325.829 203.39 326.096 203.271 326.313 203.091C326.535 202.911 326.69 202.671 326.779 202.372C326.872 202.073 326.881 201.713 326.805 201.294C326.734 200.898 326.616 200.583 326.45 200.347C326.285 200.112 326.089 199.95 325.863 199.861C325.637 199.776 325.394 199.758 325.133 199.807C324.956 199.84 324.801 199.907 324.668 200.007C324.54 200.111 324.429 200.253 324.334 200.433C324.241 200.618 324.164 200.843 324.105 201.108C324.046 201.378 324 201.694 323.966 202.058C323.918 202.56 323.842 202.999 323.739 203.376C323.636 203.753 323.501 204.073 323.334 204.334C323.171 204.599 322.969 204.81 322.728 204.966C322.49 205.126 322.209 205.236 321.882 205.298C321.541 205.361 321.219 205.35 320.918 205.263C320.616 205.177 320.344 205.023 320.102 204.802C319.86 204.581 319.653 204.3 319.48 203.959C319.312 203.621 319.188 203.231 319.109 202.788C319.039 202.4 319.024 202.008 319.063 201.611C319.104 201.218 319.204 200.847 319.363 200.499C319.524 200.156 319.745 199.862 320.026 199.618C320.312 199.378 320.665 199.219 321.083 199.14L321.283 200.248C320.995 200.301 320.757 200.404 320.57 200.554C320.386 200.703 320.245 200.887 320.145 201.104C320.046 201.325 319.986 201.565 319.965 201.823C319.948 202.085 319.964 202.35 320.013 202.619C320.083 203.008 320.196 203.326 320.352 203.575C320.508 203.824 320.698 203.999 320.922 204.1C321.148 204.205 321.397 204.232 321.669 204.181Z" fill="black"/>
<path d="M322.029 242.067L322.545 239.847L323.439 240.062L322.923 242.282C322.823 242.712 322.811 243.077 322.886 243.376C322.961 243.675 323.105 243.915 323.32 244.095C323.534 244.279 323.797 244.409 324.108 244.484C324.393 244.552 324.675 244.554 324.955 244.488C325.234 244.427 325.481 244.281 325.694 244.052C325.912 243.823 326.071 243.493 326.171 243.063L326.627 241.1L319.232 239.322L319.488 238.22L327.783 240.215L327.071 243.28C326.925 243.908 326.693 244.412 326.376 244.794C326.059 245.176 325.682 245.433 325.246 245.565C324.814 245.698 324.354 245.706 323.864 245.588C323.332 245.46 322.904 245.239 322.58 244.924C322.256 244.609 322.046 244.211 321.949 243.729C321.857 243.249 321.883 242.695 322.029 242.067Z" fill="black"/>
<path d="M320.671 260.851L314.713 255.062L315.175 254.003L321.65 260.496L321.353 261.178L320.671 260.851ZM312.639 259.821L320.856 260.426L321.552 260.721L321.255 261.404L312.176 260.884L312.639 259.821ZM315.576 260.986L314.732 260.605L316.647 256.211L317.491 256.592L315.576 260.986Z" fill="black"/>
<path d="M307.21 277.834L304.665 276.023C304.598 275.845 304.55 275.605 304.521 275.302C304.496 275.001 304.539 274.641 304.651 274.222C304.764 273.809 305.001 273.34 305.362 272.815C305.656 272.387 306 272.044 306.394 271.788C306.789 271.537 307.219 271.38 307.683 271.318C308.149 271.261 308.635 271.305 309.142 271.45C309.649 271.6 310.163 271.86 310.681 272.23L311.221 272.614C311.74 272.983 312.161 273.374 312.484 273.786C312.805 274.201 313.024 274.631 313.142 275.074C313.262 275.519 313.275 275.969 313.181 276.425C313.089 276.882 312.888 277.338 312.576 277.792C312.206 278.33 311.806 278.713 311.374 278.943C310.942 279.177 310.496 279.282 310.036 279.256C309.573 279.233 309.116 279.105 308.666 278.87L309.306 277.938C309.586 278.075 309.873 278.155 310.166 278.176C310.457 278.201 310.743 278.143 311.024 278.003C311.308 277.865 311.574 277.616 311.822 277.255C312.045 276.93 312.179 276.606 312.225 276.284C312.271 275.962 312.237 275.645 312.124 275.335C312.011 275.024 311.824 274.719 311.566 274.419C311.305 274.123 310.978 273.836 310.587 273.557L310.038 273.167C309.637 272.881 309.247 272.673 308.868 272.542C308.486 272.415 308.124 272.36 307.779 272.378C307.438 272.399 307.126 272.491 306.843 272.654C306.559 272.821 306.313 273.054 306.108 273.353C305.88 273.685 305.722 273.973 305.635 274.218C305.551 274.465 305.507 274.673 305.504 274.843C305.504 275.016 305.518 275.158 305.546 275.269L307.102 276.377L308.22 274.749L308.964 275.279L307.21 277.834Z" fill="black"/>
<path d="M292.993 289.295L292.355 288.632L295.553 285.441L296.191 286.104L292.993 289.295ZM301.306 291.75L295.391 285.603L296.192 284.804L302.107 290.952L301.306 291.75ZM296.15 291.715L295.512 291.052L298.287 288.283L298.925 288.946L296.15 291.715ZM298.312 294.739L297.67 294.071L300.826 290.922L301.468 291.589L298.312 294.739Z" fill="black"/>
</svg>
